<svg xmlns="http://www.w3.org/2000/svg" viewBox="0 0 32 32" width="32" height="32">
  <!-- Background circle -->
  <circle cx="16" cy="16" r="15" fill="#3B82F6" stroke="#1E40AF" stroke-width="2"/>
  
  <!-- Document icon -->
  <rect x="8" y="6" width="12" height="16" rx="1" fill="white" opacity="0.9"/>
  <rect x="10" y="8" width="8" height="1" fill="#3B82F6"/>
  <rect x="10" y="10" width="6" height="1" fill="#3B82F6"/>
  <rect x="10" y="12" width="7" height="1" fill="#3B82F6"/>
  <rect x="10" y="14" width="5" height="1" fill="#3B82F6"/>
  <rect x="10" y="16" width="8" height="1" fill="#3B82F6"/>
  <rect x="10" y="18" width="6" height="1" fill="#3B82F6"/>
  
  <!-- AI/Neural network dots -->
  <circle cx="22" cy="10" r="1.5" fill="#10B981"/>
  <circle cx="24" cy="12" r="1.5" fill="#10B981"/>
  <circle cx="22" cy="14" r="1.5" fill="#10B981"/>
  <circle cx="24" cy="16" r="1.5" fill="#10B981"/>
  <circle cx="22" cy="18" r="1.5" fill="#10B981"/>
  
  <!-- Connection lines -->
  <line x1="23.5" y1="10" x2="22.5" y2="12" stroke="#10B981" stroke-width="1"/>
  <line x1="22.5" y1="12" x2="23.5" y2="14" stroke="#10B981" stroke-width="1"/>
  <line x1="23.5" y1="14" x2="22.5" y2="16" stroke="#10B981" stroke-width="1"/>
  <line x1="22.5" y1="16" x2="23.5" y2="18" stroke="#10B981" stroke-width="1"/>
</svg> 